<svg version="1.1" id="Layer_1" xmlns="http://www.w3.org/2000/svg" xmlns:xlink="http://www.w3.org/1999/xlink" x="0px" y="0px"
	 width="100%" viewBox="0 0 1024 752" enable-background="new 0 0 1024 752" xml:space="preserve">
<path fill="#000000" opacity="1.000000" stroke="none" 
	d="
M605.892273,25.954224 
	C672.611694,43.682770 729.892944,76.966972 777.562256,126.261887 
	C826.696045,177.071152 858.732849,237.177780 873.410950,306.469208 
	C880.044800,337.786102 882.708008,369.433044 881.017456,401.315155 
	C877.275940,471.876740 855.477234,536.414856 814.746887,594.327148 
	C778.660950,645.635742 732.545959,685.424011 676.368469,713.336243 
	C636.600220,733.095398 594.565186,745.117737 550.291077,749.508789 
	C468.253815,757.645020 391.684052,740.734985 321.561737,697.749573 
	C239.015717,647.148438 184.649246,574.490051 157.877655,481.371124 
	C146.583313,442.086273 142.435944,401.864929 145.061615,361.194092 
	C150.322342,279.706665 178.911133,207.275162 231.629318,144.643600 
	C265.949829,103.869339 307.332916,72.176704 355.420715,49.310421 
	C391.517120,32.146191 429.500275,21.405956 469.206665,16.604858 
	C515.246765,11.037926 560.634460,14.389698 605.892273,25.954224 
M327.856049,689.600464 
	C441.850464,757.981689 582.291443,758.944946 695.871643,690.663879 
	C785.270935,636.919617 840.261353,557.906738 864.059814,455.769775 
	C860.320618,455.586334 857.867676,455.361694 855.414612,455.360779 
	C777.768066,455.332550 700.121521,455.349792 622.475159,455.246368 
	C618.571350,455.241180 616.107422,456.511810 613.721008,459.631653 
	C588.292419,492.875061 554.337463,510.428436 512.713501,510.699768 
	C471.464050,510.968658 437.570221,493.964630 411.749268,461.545746 
	C409.525269,458.753510 407.439117,457.089386 403.563629,457.094635 
	C325.584015,457.200134 247.604202,457.155365 169.624420,457.159637 
	C162.753021,457.160004 162.400360,457.614990 164.049911,464.351532 
	C187.841614,561.513855 242.609406,636.201294 327.856049,689.600464 
M320.499695,314.703857 
	C343.986267,314.445770 367.472351,314.095215 390.959625,313.981323 
	C398.856812,313.943024 404.155487,310.816650 408.553314,304.010986 
	C414.362274,295.021576 417.105957,284.931396 420.692932,275.177307 
	C422.501404,270.259491 424.826813,268.889069 429.681152,268.942566 
	C442.837158,269.087585 455.928467,268.402283 468.512207,263.822479 
	C483.546844,258.350739 499.073273,256.050903 515.089722,256.641144 
	C554.130798,258.079926 586.224854,273.800323 610.856018,303.969788 
	C616.042114,310.322052 621.142883,312.988800 629.254272,312.954376 
	C695.403870,312.673584 761.555054,312.776520 827.705750,312.748810 
	C829.868774,312.747894 832.038757,312.677216 834.192261,312.488495 
	C835.533875,312.370941 837.115967,311.984009 837.050293,310.291046 
	C836.883972,306.001373 837.139709,301.445007 834.086914,297.960297 
	C827.668274,290.633575 820.283325,284.859314 810.885986,281.310364 
	C796.045227,275.705688 781.404724,269.565186 765.174988,270.076080 
	C750.807678,270.528381 740.310059,263.885498 732.006836,252.957718 
	C719.194397,236.095459 709.946106,216.972610 698.291260,199.368896 
	C696.837708,197.173553 695.792603,194.642059 694.917847,192.140564 
	C690.955994,180.810760 685.929321,169.917679 681.454712,158.799561 
	C676.802246,147.239624 671.284180,135.946777 669.907349,123.301361 
	C669.575867,120.256676 668.079102,117.566757 666.324707,115.132301 
	C655.882141,100.641380 642.883789,88.541298 627.971619,79.108444 
	C617.923767,72.752556 607.223450,67.152122 596.577759,61.629852 
	C588.446472,57.411869 581.112000,51.991161 577.465088,42.957542 
	C576.253906,39.957306 574.530701,37.172977 571.159485,36.295555 
	C556.345947,32.440090 541.587646,27.932104 525.969177,31.277885 
	C510.648590,34.559849 495.272308,37.319847 479.501038,37.097233 
	C475.439545,37.039909 471.551086,38.326134 468.128937,40.494209 
	C459.232147,46.130722 449.291382,48.823189 439.181183,51.057785 
	C434.345428,52.126606 430.157043,54.120945 426.590576,57.716877 
	C422.954590,61.382900 418.754028,64.375191 413.977661,66.560707 
	C407.308044,69.612518 400.556396,72.714394 395.505524,78.231644 
	C388.990204,85.348541 381.087646,90.561424 372.870728,95.327209 
	C366.825348,98.833488 360.436157,101.741699 354.324219,105.139534 
	C339.487183,113.387993 325.289673,122.811409 309.452789,129.210876 
	C300.841125,132.690735 291.949341,135.360367 284.286011,141.142303 
	C264.406036,156.141739 247.036560,173.556595 234.041794,194.761032 
	C226.351562,207.309677 215.399612,216.783936 206.372955,228.020355 
	C202.018463,233.440857 195.822388,236.862625 191.058746,242.077545 
	C185.238281,248.449402 184.870148,254.663727 187.707764,261.739044 
	C189.113892,265.245087 189.199173,268.463379 188.158539,271.924438 
	C186.288452,278.144257 184.163040,284.307159 182.682312,290.620056 
	C179.603775,303.745026 187.786972,314.343994 201.001053,314.664764 
	C207.996536,314.834564 215.004807,314.665375 221.990326,315.001740 
	C227.999405,315.290985 234.212814,316.121307 239.050995,319.812469 
	C250.002319,328.167572 268.193665,329.619415 279.761627,322.412842 
	C280.448151,321.985138 281.254395,321.439026 281.551483,320.751984 
	C282.649506,318.212555 284.942413,317.786774 287.208588,317.195587 
	C297.824310,314.426147 308.674866,314.740509 320.499695,314.703857 
M428.326355,433.185791 
	C452.095520,468.538544 485.214905,485.138306 527.488831,479.219055 
	C585.068604,471.156677 621.026733,416.097778 607.105591,359.556824 
	C594.432861,308.086182 541.656372,275.795227 490.278473,287.875793 
	C424.575195,303.324677 393.892487,377.530121 428.326355,433.185791 
z"/>
<path fill="#000000" opacity="1.000000" stroke="none" 
	d="
M456.777679,430.189514 
	C420.867981,386.374969 441.781860,322.687683 495.848297,310.234283 
	C536.166382,300.947601 576.259949,327.312103 584.084290,368.256073 
	C591.852478,408.906250 564.433777,448.129669 523.636780,454.297668 
	C497.276276,458.283081 475.080261,449.973145 456.777679,430.189514 
M449.367432,373.984955 
	C449.056000,379.810486 448.676544,385.672302 449.612885,391.441742 
	C455.024078,424.783722 484.628448,447.621399 518.455505,444.674133 
	C550.763184,441.859222 575.650757,413.424072 574.965820,380.108521 
	C574.101074,338.047028 532.303589,308.354156 492.436432,321.929260 
	C468.066284,330.227509 454.008423,347.826019 449.367432,373.984955 
z"/>
</svg>